<?xml version="1.0" standalone="no"?><svg xmlns:xlink="http://www.w3.org/1999/xlink" xmlns="http://www.w3.org/2000/svg" viewBox="0 0 1000 545.4548113355161" preserveAspectRatio="xMaxYMax slice"><g transform="scale(1.4623453387011156)"><rect x="0" y="0" width="683.8333333333333" height="373" fill="#ffffff"/><rect x="0" y="0" width="62.17" height="62.17" fill="#fdfdfd"/><polygon points="0,0 62.17,0 0,62.17" fill="#f5f5f5"/><rect x="62.166666666666664" y="0" width="62.166666666666664" height="62.166666666666664" fill="#ffffff"/><rect x="62.17" y="0" width="31.08" height="31.08" fill="#ffffff"/><polygon points="93.25,0 93.25,31.08 62.17,31.08" fill="#d6d6d6"/><rect x="93.25" y="0" width="31.08" height="31.08" fill="#fafafa"/><polygon points="93.25,0 124.33,0 93.25,31.08" fill="#f6f6f6"/><rect x="62.17" y="31.08" width="31.08" height="31.08" fill="#e8e8e8"/><polygon points="62.17,31.08 93.25,62.16 62.17,62.16" fill="#eeeeee"/><rect x="93.25" y="31.08" width="31.08" height="31.08" fill="#f8f8f8"/><polygon points="93.25,31.08 124.33,31.08 93.25,62.16" fill="#e0e0e0"/><rect x="124.33" y="0" width="62.17" height="62.17" fill="#f3f3f3"/><polygon points="124.33,0 186.5,62.17 124.33,62.17" fill="#dddddd"/><rect x="186.5" y="0" width="62.17" height="62.17" fill="#eeeeee"/><polygon points="186.5,0 248.67000000000002,62.17 186.5,62.17" fill="#f7f7f7"/><rect x="248.66666666666666" y="0" width="62.166666666666664" height="62.166666666666664" fill="#ffffff"/><rect x="248.67" y="0" width="31.08" height="31.08" fill="#f9f9f9"/><polygon points="248.67,0 279.75,31.08 248.67,31.08" fill="#e5e5e5"/><rect x="279.75" y="0" width="31.08" height="31.08" fill="#eaeaea"/><polygon points="279.75,0 310.83,0 279.75,31.08" fill="#f8f8f8"/><rect x="248.67" y="31.08" width="31.08" height="31.08" fill="#f3f3f3"/><polygon points="248.67,31.08 279.75,62.16 248.67,62.16" fill="#d8d8d8"/><rect x="279.75" y="31.08" width="31.08" height="31.08" fill="#f2f2f2"/><polygon points="279.75,31.08 310.83,31.08 279.75,62.16" fill="#ebebeb"/><rect x="310.83" y="0" width="62.17" height="62.17" fill="#e6e6e6"/><polygon points="310.83,0 373,0 310.83,62.17" fill="#f0f0f0"/><rect x="373" y="0" width="62.17" height="62.17" fill="#fefefe"/><polygon points="373,0 435.17,62.17 373,62.17" fill="#f3f3f3"/><rect x="435.16666666666663" y="0" width="62.166666666666664" height="62.166666666666664" fill="#ffffff"/><rect x="435.17" y="0" width="31.08" height="31.08" fill="#dddddd"/><polygon points="435.17,0 466.25,31.08 435.17,31.08" fill="#f5f5f5"/><rect x="466.25" y="0" width="31.08" height="31.08" fill="#f2f2f2"/><polygon points="466.25,0 497.33,0 497.33,31.08" fill="#ececec"/><rect x="435.17" y="31.08" width="31.08" height="31.08" fill="#ececec"/><polygon points="435.17,31.08 466.25,62.16 435.17,62.16" fill="#f5f5f5"/><rect x="466.25" y="31.08" width="31.08" height="31.08" fill="#d9d9d9"/><polygon points="466.25,31.08 497.33,62.16 466.25,62.16" fill="#d9d9d9"/><rect x="497.3333333333333" y="0" width="62.166666666666664" height="62.166666666666664" fill="#ffffff"/><rect x="497.33" y="0" width="31.08" height="31.08" fill="#e8e8e8"/><polygon points="497.33,0 528.41,0 528.41,31.08" fill="#f5f5f5"/><rect x="528.42" y="0" width="31.08" height="31.08" fill="#fafafa"/><polygon points="528.42,0 559.5,0 559.5,31.08" fill="#fbfbfb"/><rect x="497.33" y="31.08" width="31.08" height="31.08" fill="#fafafa"/><polygon points="497.33,31.08 528.41,62.16 497.33,62.16" fill="#f6f6f6"/><rect x="528.42" y="31.08" width="31.08" height="31.08" fill="#e7e7e7"/><polygon points="559.5,31.08 559.5,62.16 528.42,62.16" fill="#f4f4f4"/><rect x="559.5" y="0" width="62.166666666666664" height="62.166666666666664" fill="#ffffff"/><rect x="559.5" y="0" width="31.08" height="31.08" fill="#dfdfdf"/><polygon points="590.58,0 590.58,31.08 559.5,31.08" fill="#fcfcfc"/><rect x="590.58" y="0" width="31.08" height="31.08" fill="#ededed"/><polygon points="590.58,0 621.6600000000001,31.08 590.58,31.08" fill="#ececec"/><rect x="559.5" y="31.08" width="31.08" height="31.08" fill="#e8e8e8"/><polygon points="559.5,31.08 590.58,31.08 559.5,62.16" fill="#f3f3f3"/><rect x="590.58" y="31.08" width="31.08" height="31.08" fill="#dfdfdf"/><polygon points="621.6600000000001,31.08 621.6600000000001,62.16 590.58,62.16" fill="#f4f4f4"/><rect x="621.6666666666666" y="0" width="62.166666666666664" height="62.166666666666664" fill="#ffffff"/><rect x="621.67" y="0" width="31.08" height="31.08" fill="#f0f0f0"/><polygon points="621.67,0 652.75,31.08 621.67,31.08" fill="#f1f1f1"/><rect x="652.75" y="0" width="31.08" height="31.08" fill="#f8f8f8"/><polygon points="652.75,0 683.83,0 652.75,31.08" fill="#fdfdfd"/><rect x="621.67" y="31.08" width="31.08" height="31.08" fill="#f4f4f4"/><polygon points="621.67,31.08 652.75,31.08 652.75,62.16" fill="#efefef"/><rect x="652.75" y="31.08" width="31.08" height="31.08" fill="#dfdfdf"/><polygon points="683.83,31.08 683.83,62.16 652.75,62.16" fill="#ffffff"/><rect x="0" y="62.17" width="62.17" height="62.17" fill="#eaeaea"/><polygon points="62.17,62.17 62.17,124.34 0,124.34" fill="#d7d7d7"/><rect x="62.17" y="62.17" width="62.17" height="62.17" fill="#f0f0f0"/><polygon points="62.17,62.17 124.34,62.17 62.17,124.34" fill="#eeeeee"/><rect x="124.33" y="62.17" width="62.17" height="62.17" fill="#f8f8f8"/><polygon points="124.33,62.17 186.5,62.17 124.33,124.34" fill="#dcdcdc"/><rect x="186.5" y="62.166666666666664" width="62.166666666666664" height="62.166666666666664" fill="#ffffff"/><rect x="186.5" y="62.17" width="31.08" height="31.08" fill="#f1f1f1"/><polygon points="217.57999999999998,62.17 217.57999999999998,93.25 186.5,93.25" fill="#f7f7f7"/><rect x="217.58" y="62.17" width="31.08" height="31.08" fill="#eaeaea"/><polygon points="248.66000000000003,62.17 248.66000000000003,93.25 217.58,93.25" fill="#f9f9f9"/><rect x="186.5" y="93.25" width="31.08" height="31.08" fill="#d6d6d6"/><polygon points="186.5,93.25 217.57999999999998,124.33 186.5,124.33" fill="#dedede"/><rect x="217.58" y="93.25" width="31.08" height="31.08" fill="#f4f4f4"/><polygon points="217.58,93.25 248.66000000000003,124.33 217.58,124.33" fill="#ffffff"/><rect x="248.66666666666666" y="62.166666666666664" width="62.166666666666664" height="62.166666666666664" fill="#ffffff"/><rect x="248.67" y="62.17" width="31.08" height="31.08" fill="#f3f3f3"/><polygon points="248.67,62.17 279.75,93.25 248.67,93.25" fill="#ececec"/><rect x="279.75" y="62.17" width="31.08" height="31.08" fill="#e1e1e1"/><polygon points="279.75,62.17 310.83,93.25 279.75,93.25" fill="#fefefe"/><rect x="248.67" y="93.25" width="31.08" height="31.08" fill="#f6f6f6"/><polygon points="248.67,93.25 279.75,124.33 248.67,124.33" fill="#dbdbdb"/><rect x="279.75" y="93.25" width="31.08" height="31.08" fill="#f5f5f5"/><polygon points="310.83,93.25 310.83,124.33 279.75,124.33" fill="#fafafa"/><rect x="310.8333333333333" y="62.166666666666664" width="62.166666666666664" height="62.166666666666664" fill="#ffffff"/><rect x="310.83" y="62.17" width="31.08" height="31.08" fill="#fbfbfb"/><polygon points="341.90999999999997,62.17 341.90999999999997,93.25 310.83,93.25" fill="#fcfcfc"/><rect x="341.92" y="62.17" width="31.08" height="31.08" fill="#f7f7f7"/><polygon points="341.92,62.17 373,62.17 373,93.25" fill="#e7e7e7"/><rect x="310.83" y="93.25" width="31.08" height="31.08" fill="#e4e4e4"/><polygon points="341.90999999999997,93.25 341.90999999999997,124.33 310.83,124.33" fill="#f9f9f9"/><rect x="341.92" y="93.25" width="31.08" height="31.08" fill="#f6f6f6"/><polygon points="341.92,93.25 373,93.25 341.92,124.33" fill="#dedede"/><rect x="373" y="62.17" width="62.17" height="62.17" fill="#ffffff"/><polygon points="373,62.17 435.17,62.17 373,124.34" fill="#f0f0f0"/><rect x="435.16666666666663" y="62.166666666666664" width="62.166666666666664" height="62.166666666666664" fill="#ffffff"/><rect x="435.17" y="62.17" width="31.08" height="31.08" fill="#fcfcfc"/><polygon points="435.17,62.17 466.25,93.25 435.17,93.25" fill="#d5d5d5"/><rect x="466.25" y="62.17" width="31.08" height="31.08" fill="#f2f2f2"/><polygon points="497.33,62.17 497.33,93.25 466.25,93.25" fill="#f2f2f2"/><rect x="435.17" y="93.25" width="31.08" height="31.08" fill="#fefefe"/><polygon points="435.17,93.25 466.25,93.25 435.17,124.33" fill="#eeeeee"/><rect x="466.25" y="93.25" width="31.08" height="31.08" fill="#fefefe"/><polygon points="466.25,93.25 497.33,124.33 466.25,124.33" fill="#ececec"/><rect x="497.3333333333333" y="62.166666666666664" width="62.166666666666664" height="62.166666666666664" fill="#ffffff"/><rect x="497.33" y="62.17" width="31.08" height="31.08" fill="#fefefe"/><polygon points="497.33,62.17 528.41,62.17 497.33,93.25" fill="#eeeeee"/><rect x="528.42" y="62.17" width="31.08" height="31.08" fill="#d7d7d7"/><polygon points="559.5,62.17 559.5,93.25 528.42,93.25" fill="#f1f1f1"/><rect x="497.33" y="93.25" width="31.08" height="31.08" fill="#efefef"/><polygon points="528.41,93.25 528.41,124.33 497.33,124.33" fill="#eaeaea"/><rect x="528.42" y="93.25" width="31.08" height="31.08" fill="#f5f5f5"/><polygon points="528.42,93.25 559.5,124.33 528.42,124.33" fill="#e7e7e7"/><rect x="559.5" y="62.17" width="62.17" height="62.17" fill="#e3e3e3"/><polygon points="559.5,62.17 621.67,124.34 559.5,124.34" fill="#dfdfdf"/><rect x="621.67" y="62.17" width="62.17" height="62.17" fill="#f8f8f8"/><polygon points="621.67,62.17 683.8399999999999,62.17 621.67,124.34" fill="#f4f4f4"/><rect x="0" y="124.33" width="62.17" height="62.17" fill="#dadada"/><polygon points="0,124.33 62.17,124.33 0,186.5" fill="#dddddd"/><rect x="62.17" y="124.33" width="62.17" height="62.17" fill="#f3f3f3"/><polygon points="124.34,124.33 124.34,186.5 62.17,186.5" fill="#ebebeb"/><rect x="124.33" y="124.33" width="62.17" height="62.17" fill="#f0f0f0"/><polygon points="124.33,124.33 186.5,124.33 186.5,186.5" fill="#fdfdfd"/><rect x="186.5" y="124.33333333333333" width="62.166666666666664" height="62.166666666666664" fill="#ffffff"/><rect x="186.5" y="124.33" width="31.08" height="31.08" fill="#e1e1e1"/><polygon points="186.5,124.33 217.57999999999998,155.41 186.5,155.41" fill="#dedede"/><rect x="217.58" y="124.33" width="31.08" height="31.08" fill="#e5e5e5"/><polygon points="217.58,124.33 248.66000000000003,124.33 217.58,155.41" fill="#eaeaea"/><rect x="186.5" y="155.42" width="31.08" height="31.08" fill="#fefefe"/><polygon points="186.5,155.42 217.57999999999998,186.5 186.5,186.5" fill="#fefefe"/><rect x="217.58" y="155.42" width="31.08" height="31.08" fill="#e5e5e5"/><polygon points="248.66000000000003,155.42 248.66000000000003,186.5 217.58,186.5" fill="#f4f4f4"/><rect x="248.67" y="124.33" width="62.17" height="62.17" fill="#e5e5e5"/><polygon points="310.84,124.33 310.84,186.5 248.67,186.5" fill="#ededed"/><rect x="310.8333333333333" y="124.33333333333333" width="62.166666666666664" height="62.166666666666664" fill="#ffffff"/><rect x="310.83" y="124.33" width="31.08" height="31.08" fill="#dddddd"/><polygon points="310.83,124.33 341.90999999999997,124.33 310.83,155.41" fill="#f6f6f6"/><rect x="341.92" y="124.33" width="31.08" height="31.08" fill="#e3e3e3"/><polygon points="341.92,124.33 373,124.33 341.92,155.41" fill="#f0f0f0"/><rect x="310.83" y="155.42" width="31.08" height="31.08" fill="#e0e0e0"/><polygon points="310.83,155.42 341.90999999999997,155.42 310.83,186.5" fill="#d7d7d7"/><rect x="341.92" y="155.42" width="31.08" height="31.08" fill="#f4f4f4"/><polygon points="341.92,155.42 373,155.42 341.92,186.5" fill="#f2f2f2"/><rect x="373" y="124.33333333333333" width="62.166666666666664" height="62.166666666666664" fill="#ffffff"/><rect x="373" y="124.33" width="31.08" height="31.08" fill="#dfdfdf"/><polygon points="373,124.33 404.08,124.33 404.08,155.41" fill="#f0f0f0"/><rect x="404.08" y="124.33" width="31.08" height="31.08" fill="#fcfcfc"/><polygon points="404.08,124.33 435.15999999999997,124.33 435.15999999999997,155.41" fill="#e6e6e6"/><rect x="373" y="155.42" width="31.08" height="31.08" fill="#f3f3f3"/><polygon points="373,155.42 404.08,155.42 373,186.5" fill="#d8d8d8"/><rect x="404.08" y="155.42" width="31.08" height="31.08" fill="#d5d5d5"/><polygon points="435.15999999999997,155.42 435.15999999999997,186.5 404.08,186.5" fill="#fefefe"/><rect x="435.16666666666663" y="124.33333333333333" width="62.166666666666664" height="62.166666666666664" fill="#ffffff"/><rect x="435.17" y="124.33" width="31.08" height="31.08" fill="#fbfbfb"/><polygon points="435.17,124.33 466.25,124.33 466.25,155.41" fill="#fafafa"/><rect x="466.25" y="124.33" width="31.08" height="31.08" fill="#f4f4f4"/><polygon points="497.33,124.33 497.33,155.41 466.25,155.41" fill="#f4f4f4"/><rect x="435.17" y="155.42" width="31.08" height="31.08" fill="#f5f5f5"/><polygon points="466.25,155.42 466.25,186.5 435.17,186.5" fill="#e7e7e7"/><rect x="466.25" y="155.42" width="31.08" height="31.08" fill="#f2f2f2"/><polygon points="466.25,155.42 497.33,155.42 497.33,186.5" fill="#f2f2f2"/><rect x="497.33" y="124.33" width="62.17" height="62.17" fill="#f5f5f5"/><polygon points="497.33,124.33 559.5,124.33 497.33,186.5" fill="#eeeeee"/><rect x="559.5" y="124.33" width="62.17" height="62.17" fill="#f8f8f8"/><polygon points="559.5,124.33 621.67,124.33 621.67,186.5" fill="#f7f7f7"/><rect x="621.67" y="124.33" width="62.17" height="62.17" fill="#f3f3f3"/><polygon points="621.67,124.33 683.8399999999999,124.33 683.8399999999999,186.5" fill="#e7e7e7"/><rect x="0" y="186.5" width="62.17" height="62.17" fill="#f0f0f0"/><polygon points="62.17,186.5 62.17,248.67000000000002 0,248.67000000000002" fill="#dfdfdf"/><rect x="62.166666666666664" y="186.5" width="62.166666666666664" height="62.166666666666664" fill="#ffffff"/><rect x="62.17" y="186.5" width="31.08" height="31.08" fill="#d7d7d7"/><polygon points="62.17,186.5 93.25,217.57999999999998 62.17,217.57999999999998" fill="#f0f0f0"/><rect x="93.25" y="186.5" width="31.08" height="31.08" fill="#f6f6f6"/><polygon points="93.25,186.5 124.33,217.57999999999998 93.25,217.57999999999998" fill="#eeeeee"/><rect x="62.17" y="217.58" width="31.08" height="31.08" fill="#fcfcfc"/><polygon points="93.25,217.58 93.25,248.66000000000003 62.17,248.66000000000003" fill="#f8f8f8"/><rect x="93.25" y="217.58" width="31.08" height="31.08" fill="#f6f6f6"/><polygon points="93.25,217.58 124.33,217.58 93.25,248.66000000000003" fill="#f5f5f5"/><rect x="124.33" y="186.5" width="62.17" height="62.17" fill="#e1e1e1"/><polygon points="124.33,186.5 186.5,248.67000000000002 124.33,248.67000000000002" fill="#ebebeb"/><rect x="186.5" y="186.5" width="62.166666666666664" height="62.166666666666664" fill="#ffffff"/><rect x="186.5" y="186.5" width="31.08" height="31.08" fill="#f6f6f6"/><polygon points="186.5,186.5 217.57999999999998,217.57999999999998 186.5,217.57999999999998" fill="#f9f9f9"/><rect x="217.58" y="186.5" width="31.08" height="31.08" fill="#f8f8f8"/><polygon points="217.58,186.5 248.66000000000003,186.5 248.66000000000003,217.57999999999998" fill="#ffffff"/><rect x="186.5" y="217.58" width="31.08" height="31.08" fill="#ffffff"/><polygon points="186.5,217.58 217.57999999999998,217.58 186.5,248.66000000000003" fill="#ededed"/><rect x="217.58" y="217.58" width="31.08" height="31.08" fill="#f8f8f8"/><polygon points="217.58,217.58 248.66000000000003,248.66000000000003 217.58,248.66000000000003" fill="#dbdbdb"/><rect x="248.66666666666666" y="186.5" width="62.166666666666664" height="62.166666666666664" fill="#ffffff"/><rect x="248.67" y="186.5" width="31.08" height="31.08" fill="#f9f9f9"/><polygon points="248.67,186.5 279.75,217.57999999999998 248.67,217.57999999999998" fill="#f1f1f1"/><rect x="279.75" y="186.5" width="31.08" height="31.08" fill="#dddddd"/><polygon points="279.75,186.5 310.83,186.5 279.75,217.57999999999998" fill="#fcfcfc"/><rect x="248.67" y="217.58" width="31.08" height="31.08" fill="#e2e2e2"/><polygon points="279.75,217.58 279.75,248.66000000000003 248.67,248.66000000000003" fill="#fefefe"/><rect x="279.75" y="217.58" width="31.08" height="31.08" fill="#dbdbdb"/><polygon points="279.75,217.58 310.83,217.58 279.75,248.66000000000003" fill="#fafafa"/><rect x="310.83" y="186.5" width="62.17" height="62.17" fill="#f8f8f8"/><polygon points="373,186.5 373,248.67000000000002 310.83,248.67000000000002" fill="#e0e0e0"/><rect x="373" y="186.5" width="62.17" height="62.17" fill="#f7f7f7"/><polygon points="373,186.5 435.17,248.67000000000002 373,248.67000000000002" fill="#ededed"/><rect x="435.17" y="186.5" width="62.17" height="62.17" fill="#dadada"/><polygon points="497.34000000000003,186.5 497.34000000000003,248.67000000000002 435.17,248.67000000000002" fill="#ececec"/><rect x="497.3333333333333" y="186.5" width="62.166666666666664" height="62.166666666666664" fill="#ffffff"/><rect x="497.33" y="186.5" width="31.08" height="31.08" fill="#fbfbfb"/><polygon points="497.33,186.5 528.41,186.5 528.41,217.57999999999998" fill="#f7f7f7"/><rect x="528.42" y="186.5" width="31.08" height="31.08" fill="#e4e4e4"/><polygon points="559.5,186.5 559.5,217.57999999999998 528.42,217.57999999999998" fill="#fafafa"/><rect x="497.33" y="217.58" width="31.08" height="31.08" fill="#f0f0f0"/><polygon points="497.33,217.58 528.41,248.66000000000003 497.33,248.66000000000003" fill="#f6f6f6"/><rect x="528.42" y="217.58" width="31.08" height="31.08" fill="#f2f2f2"/><polygon points="528.42,217.58 559.5,248.66000000000003 528.42,248.66000000000003" fill="#f0f0f0"/><rect x="559.5" y="186.5" width="62.166666666666664" height="62.166666666666664" fill="#ffffff"/><rect x="559.5" y="186.5" width="31.08" height="31.08" fill="#fefefe"/><polygon points="590.58,186.5 590.58,217.57999999999998 559.5,217.57999999999998" fill="#f8f8f8"/><rect x="590.58" y="186.5" width="31.08" height="31.08" fill="#f4f4f4"/><polygon points="621.6600000000001,186.5 621.6600000000001,217.57999999999998 590.58,217.57999999999998" fill="#f5f5f5"/><rect x="559.5" y="217.58" width="31.08" height="31.08" fill="#f0f0f0"/><polygon points="559.5,217.58 590.58,217.58 590.58,248.66000000000003" fill="#fefefe"/><rect x="590.58" y="217.58" width="31.08" height="31.08" fill="#eeeeee"/><polygon points="590.58,217.58 621.6600000000001,248.66000000000003 590.58,248.66000000000003" fill="#eeeeee"/><rect x="621.67" y="186.5" width="62.17" height="62.17" fill="#fbfbfb"/><polygon points="621.67,186.5 683.8399999999999,248.67000000000002 621.67,248.67000000000002" fill="#d7d7d7"/><rect x="0" y="248.67" width="62.17" height="62.17" fill="#d5d5d5"/><polygon points="0,248.67 62.17,248.67 0,310.84" fill="#fcfcfc"/><rect x="62.166666666666664" y="248.66666666666666" width="62.166666666666664" height="62.166666666666664" fill="#ffffff"/><rect x="62.17" y="248.67" width="31.08" height="31.08" fill="#f0f0f0"/><polygon points="62.17,248.67 93.25,248.67 62.17,279.75" fill="#dedede"/><rect x="93.25" y="248.67" width="31.08" height="31.08" fill="#efefef"/><polygon points="93.25,248.67 124.33,248.67 124.33,279.75" fill="#ededed"/><rect x="62.17" y="279.75" width="31.08" height="31.08" fill="#f5f5f5"/><polygon points="62.17,279.75 93.25,310.83 62.17,310.83" fill="#e0e0e0"/><rect x="93.25" y="279.75" width="31.08" height="31.08" fill="#ebebeb"/><polygon points="124.33,279.75 124.33,310.83 93.25,310.83" fill="#f8f8f8"/><rect x="124.33333333333333" y="248.66666666666666" width="62.166666666666664" height="62.166666666666664" fill="#ffffff"/><rect x="124.33" y="248.67" width="31.08" height="31.08" fill="#f7f7f7"/><polygon points="124.33,248.67 155.41,248.67 155.41,279.75" fill="#f2f2f2"/><rect x="155.42" y="248.67" width="31.08" height="31.08" fill="#f4f4f4"/><polygon points="155.42,248.67 186.5,248.67 186.5,279.75" fill="#f1f1f1"/><rect x="124.33" y="279.75" width="31.08" height="31.08" fill="#d5d5d5"/><polygon points="124.33,279.75 155.41,310.83 124.33,310.83" fill="#e2e2e2"/><rect x="155.42" y="279.75" width="31.08" height="31.08" fill="#eaeaea"/><polygon points="155.42,279.75 186.5,279.75 186.5,310.83" fill="#eeeeee"/><rect x="186.5" y="248.66666666666666" width="62.166666666666664" height="62.166666666666664" fill="#ffffff"/><rect x="186.5" y="248.67" width="31.08" height="31.08" fill="#e6e6e6"/><polygon points="217.57999999999998,248.67 217.57999999999998,279.75 186.5,279.75" fill="#f8f8f8"/><rect x="217.58" y="248.67" width="31.08" height="31.08" fill="#fcfcfc"/><polygon points="217.58,248.67 248.66000000000003,279.75 217.58,279.75" fill="#fbfbfb"/><rect x="186.5" y="279.75" width="31.08" height="31.08" fill="#fdfdfd"/><polygon points="217.57999999999998,279.75 217.57999999999998,310.83 186.5,310.83" fill="#f0f0f0"/><rect x="217.58" y="279.75" width="31.08" height="31.08" fill="#dadada"/><polygon points="248.66000000000003,279.75 248.66000000000003,310.83 217.58,310.83" fill="#f3f3f3"/><rect x="248.66666666666666" y="248.66666666666666" width="62.166666666666664" height="62.166666666666664" fill="#ffffff"/><rect x="248.67" y="248.67" width="31.08" height="31.08" fill="#eeeeee"/><polygon points="248.67,248.67 279.75,248.67 279.75,279.75" fill="#e3e3e3"/><rect x="279.75" y="248.67" width="31.08" height="31.08" fill="#ffffff"/><polygon points="279.75,248.67 310.83,279.75 279.75,279.75" fill="#e2e2e2"/><rect x="248.67" y="279.75" width="31.08" height="31.08" fill="#fafafa"/><polygon points="279.75,279.75 279.75,310.83 248.67,310.83" fill="#f9f9f9"/><rect x="279.75" y="279.75" width="31.08" height="31.08" fill="#d5d5d5"/><polygon points="279.75,279.75 310.83,279.75 310.83,310.83" fill="#f9f9f9"/><rect x="310.83" y="248.67" width="62.17" height="62.17" fill="#dddddd"/><polygon points="373,248.67 373,310.84 310.83,310.84" fill="#f9f9f9"/><rect x="373" y="248.67" width="62.17" height="62.17" fill="#d8d8d8"/><polygon points="373,248.67 435.17,310.84 373,310.84" fill="#ececec"/><rect x="435.17" y="248.67" width="62.17" height="62.17" fill="#fcfcfc"/><polygon points="497.34000000000003,248.67 497.34000000000003,310.84 435.17,310.84" fill="#e3e3e3"/><rect x="497.33" y="248.67" width="62.17" height="62.17" fill="#f9f9f9"/><polygon points="497.33,248.67 559.5,248.67 497.33,310.84" fill="#e9e9e9"/><rect x="559.5" y="248.66666666666666" width="62.166666666666664" height="62.166666666666664" fill="#ffffff"/><rect x="559.5" y="248.67" width="31.08" height="31.08" fill="#f9f9f9"/><polygon points="559.5,248.67 590.58,248.67 559.5,279.75" fill="#e7e7e7"/><rect x="590.58" y="248.67" width="31.08" height="31.08" fill="#ececec"/><polygon points="590.58,248.67 621.6600000000001,248.67 621.6600000000001,279.75" fill="#fdfdfd"/><rect x="559.5" y="279.75" width="31.08" height="31.08" fill="#f6f6f6"/><polygon points="559.5,279.75 590.58,310.83 559.5,310.83" fill="#fdfdfd"/><rect x="590.58" y="279.75" width="31.08" height="31.08" fill="#d6d6d6"/><polygon points="590.58,279.75 621.6600000000001,310.83 590.58,310.83" fill="#dadada"/><rect x="621.6666666666666" y="248.66666666666666" width="62.166666666666664" height="62.166666666666664" fill="#ffffff"/><rect x="621.67" y="248.67" width="31.08" height="31.08" fill="#f9f9f9"/><polygon points="652.75,248.67 652.75,279.75 621.67,279.75" fill="#ececec"/><rect x="652.75" y="248.67" width="31.08" height="31.08" fill="#f7f7f7"/><polygon points="652.75,248.67 683.83,279.75 652.75,279.75" fill="#ededed"/><rect x="621.67" y="279.75" width="31.08" height="31.08" fill="#fafafa"/><polygon points="621.67,279.75 652.75,310.83 621.67,310.83" fill="#e9e9e9"/><rect x="652.75" y="279.75" width="31.08" height="31.08" fill="#fefefe"/><polygon points="683.83,279.75 683.83,310.83 652.75,310.83" fill="#efefef"/><rect x="0" y="310.8333333333333" width="62.166666666666664" height="62.166666666666664" fill="#ffffff"/><rect x="0" y="310.83" width="31.08" height="31.08" fill="#ededed"/><polygon points="31.08,310.83 31.08,341.90999999999997 0,341.90999999999997" fill="#d6d6d6"/><rect x="31.08" y="310.83" width="31.08" height="31.08" fill="#fdfdfd"/><polygon points="62.16,310.83 62.16,341.90999999999997 31.08,341.90999999999997" fill="#fefefe"/><rect x="0" y="341.92" width="31.08" height="31.08" fill="#ededed"/><polygon points="0,341.92 31.08,373 0,373" fill="#fefefe"/><rect x="31.08" y="341.92" width="31.08" height="31.08" fill="#e9e9e9"/><polygon points="31.08,341.92 62.16,341.92 62.16,373" fill="#f6f6f6"/><rect x="62.166666666666664" y="310.8333333333333" width="62.166666666666664" height="62.166666666666664" fill="#ffffff"/><rect x="62.17" y="310.83" width="31.08" height="31.08" fill="#f2f2f2"/><polygon points="62.17,310.83 93.25,310.83 62.17,341.90999999999997" fill="#f7f7f7"/><rect x="93.25" y="310.83" width="31.08" height="31.08" fill="#f9f9f9"/><polygon points="93.25,310.83 124.33,310.83 124.33,341.90999999999997" fill="#ededed"/><rect x="62.17" y="341.92" width="31.08" height="31.08" fill="#f2f2f2"/><polygon points="62.17,341.92 93.25,341.92 93.25,373" fill="#fafafa"/><rect x="93.25" y="341.92" width="31.08" height="31.08" fill="#e2e2e2"/><polygon points="93.25,341.92 124.33,341.92 93.25,373" fill="#f1f1f1"/><rect x="124.33333333333333" y="310.8333333333333" width="62.166666666666664" height="62.166666666666664" fill="#ffffff"/><rect x="124.33" y="310.83" width="31.08" height="31.08" fill="#f5f5f5"/><polygon points="155.41,310.83 155.41,341.90999999999997 124.33,341.90999999999997" fill="#f9f9f9"/><rect x="155.42" y="310.83" width="31.08" height="31.08" fill="#f0f0f0"/><polygon points="155.42,310.83 186.5,310.83 186.5,341.90999999999997" fill="#efefef"/><rect x="124.33" y="341.92" width="31.08" height="31.08" fill="#f4f4f4"/><polygon points="124.33,341.92 155.41,341.92 155.41,373" fill="#f2f2f2"/><rect x="155.42" y="341.92" width="31.08" height="31.08" fill="#ededed"/><polygon points="155.42,341.92 186.5,341.92 186.5,373" fill="#dddddd"/><rect x="186.5" y="310.8333333333333" width="62.166666666666664" height="62.166666666666664" fill="#ffffff"/><rect x="186.5" y="310.83" width="31.08" height="31.08" fill="#e7e7e7"/><polygon points="186.5,310.83 217.57999999999998,341.90999999999997 186.5,341.90999999999997" fill="#d6d6d6"/><rect x="217.58" y="310.83" width="31.08" height="31.08" fill="#fefefe"/><polygon points="248.66000000000003,310.83 248.66000000000003,341.90999999999997 217.58,341.90999999999997" fill="#f5f5f5"/><rect x="186.5" y="341.92" width="31.08" height="31.08" fill="#eaeaea"/><polygon points="186.5,341.92 217.57999999999998,341.92 186.5,373" fill="#e9e9e9"/><rect x="217.58" y="341.92" width="31.08" height="31.08" fill="#d9d9d9"/><polygon points="217.58,341.92 248.66000000000003,341.92 217.58,373" fill="#fefefe"/><rect x="248.67" y="310.83" width="62.17" height="62.17" fill="#f4f4f4"/><polygon points="248.67,310.83 310.84,310.83 248.67,373" fill="#d5d5d5"/><rect x="310.83" y="310.83" width="62.17" height="62.17" fill="#e6e6e6"/><polygon points="373,310.83 373,373 310.83,373" fill="#f4f4f4"/><rect x="373" y="310.83" width="62.17" height="62.17" fill="#f5f5f5"/><polygon points="373,310.83 435.17,373 373,373" fill="#dcdcdc"/><rect x="435.16666666666663" y="310.8333333333333" width="62.166666666666664" height="62.166666666666664" fill="#ffffff"/><rect x="435.17" y="310.83" width="31.08" height="31.08" fill="#f5f5f5"/><polygon points="435.17,310.83 466.25,341.90999999999997 435.17,341.90999999999997" fill="#dadada"/><rect x="466.25" y="310.83" width="31.08" height="31.08" fill="#fafafa"/><polygon points="466.25,310.83 497.33,310.83 497.33,341.90999999999997" fill="#e1e1e1"/><rect x="435.17" y="341.92" width="31.08" height="31.08" fill="#f1f1f1"/><polygon points="435.17,341.92 466.25,373 435.17,373" fill="#f4f4f4"/><rect x="466.25" y="341.92" width="31.08" height="31.08" fill="#fcfcfc"/><polygon points="466.25,341.92 497.33,341.92 497.33,373" fill="#d8d8d8"/><rect x="497.33" y="310.83" width="62.17" height="62.17" fill="#fdfdfd"/><polygon points="559.5,310.83 559.5,373 497.33,373" fill="#f0f0f0"/><rect x="559.5" y="310.8333333333333" width="62.166666666666664" height="62.166666666666664" fill="#ffffff"/><rect x="559.5" y="310.83" width="31.08" height="31.08" fill="#ebebeb"/><polygon points="590.58,310.83 590.58,341.90999999999997 559.5,341.90999999999997" fill="#f3f3f3"/><rect x="590.58" y="310.83" width="31.08" height="31.08" fill="#dfdfdf"/><polygon points="590.58,310.83 621.6600000000001,341.90999999999997 590.58,341.90999999999997" fill="#d8d8d8"/><rect x="559.5" y="341.92" width="31.08" height="31.08" fill="#ececec"/><polygon points="559.5,341.92 590.58,341.92 590.58,373" fill="#f9f9f9"/><rect x="590.58" y="341.92" width="31.08" height="31.08" fill="#f2f2f2"/><polygon points="590.58,341.92 621.6600000000001,341.92 590.58,373" fill="#ececec"/><rect x="621.67" y="310.83" width="62.17" height="62.17" fill="#e1e1e1"/><polygon points="621.67,310.83 683.8399999999999,310.83 683.8399999999999,373" fill="#e4e4e4"/></g></svg>